<svg xmlns="http://www.w3.org/2000/svg" width="24" height="24" viewBox="0 0 24 24"><path d="M10.848 15.932c-.399.781-.732 1.599-1.003 2.447-1.14-2.552-3.109-4.676-5.912-6.267l-1.463 2.656-2.47-5.881 6.33-1.126-1.433 2.601c2.606 1.472 4.593 3.349 5.951 5.57zm9.219-3.819l1.463 2.655 2.47-5.881-6.33-1.126 1.433 2.601c-5.339 3.017-8.103 7.72-8.103 13.638h2c0-5.144 2.405-9.241 7.067-11.887zm-8.025-12.113l-4.042 5h3v7.762c.352.409.684.831.991 1.269.312-.443.65-.87 1.009-1.286v-7.745h3l-3.958-5z"/></svg>