<svg version="1" xmlns="http://www.w3.org/2000/svg" width="1600" height="1600" viewBox="0 0 1200.000000 1200.000000"><path d="M267.5 246.5c.3 2.7.7 5.9.9 7 .2 1.1.9 5.6 1.6 10 .7 4.4 1.4 8.9 1.6 10 .2 1 .6 3.7.9 6 .3 2.2.8 5.1 1 6.5.6 3.3 1.2 7.5 2 13 .3 2.5.8 5.2 1 6 .4 1.3.7 3.4 2 12.7.5 3.6 2.7 17.7 6 38.3.8 5.1 3.4 21.6 3.9 25.5.4 2.2 1.1 6.5 1.6 9.5s1.1 7.1 1.4 9c.9 6.4 1.7 11.5 2.2 14 .2 1.4.6 4.5 1 7 .3 2.5.7 5.2.9 6 .2.8.6 2.8.9 4.5.8 4.9 2.9 18.8 3.1 21 .2 1.1 1 6.4 1.9 11.9.9 5.4 1.8 11.3 2.1 13 .7 5.2 1.5 10.8 2.7 17.1.5 3.3 1.1 6.9 1.3 8 .3 2.4 1.8 12.8 2 13.5.1.3.5 3 .9 6 .9 6.4 1.4 9.6 2.1 13 .2 1.3.7 4.2 1 6.5.3 2.2.8 4.7 1 5.5.2.8.7 4 1 7 .3 3 .8 6.2 1 7 .3.8.7 3.2.9 5.2.5 3.5.8 5.5 2.1 13.3.3 1.6.8 4.8 1 7 .5 3.3 1.7 11 5 31.1.2 1.2.7 4.8 1.1 8 .4 3.3.9 6.1.9 6.4.1.3.5 2.7 1 5.5.4 2.7.9 5.9 1.2 7 .2 1.1.6 4 .9 6.5.3 2.5.6 5.2.8 6 1.3 6.6 2 10.9 4.6 28.5 1.7 11 3.3 21.1 3.5 22.5.2 1.4.7 4.3 1 6.5.3 2.2 1 6.3 1.6 9.2.6 2.8 1 6.2 1.1 7.5 0 1.3.4 3.9.9 5.8.4 1.9 1 5.7 1.4 8.5.3 2.7 1 7.5 1.5 10.5s1.2 7.3 1.5 9.5c.4 2.2.8 5.1 1 6.5.3 1.4.7 4.3 1 6.5.4 2.2 1.5 9.4 2.5 16 2.3 14.2 4.9 30.6 5.6 35.5.3 1.9.7 4.6.9 6 .3 1.4.7 4.3 1 6.5.4 2.2 1.3 8.3 2.2 13.5.8 5.2 1.6 10.8 1.9 12.5.2 1.6.6 4.1.9 5.5.3 1.4.7 4.3 1.1 6.5.6 4.7 1.1 7.8 1.8 12 .6 3.7 7.6 48.7 8.3 53.5.3 1.9.8 5.3 1.2 7.5l.7 4h131.9l4.8-19c2.7-10.5 5-19.7 5.2-20.5l2-8c.8-3.6 1.7-7.2 1.9-8 .2-.8 5.4-21.5 11.6-46 6.1-24.5 11.3-45.2 11.5-46 .2-.9 2-8.3 4-16.5 2-8.3 3.9-15.7 4-16.5.2-.8.8-3 1.4-4.8.5-1.7.8-3.2.5-3.2-.3 0 0-.8.5-1.8.5-.9 1.1-3.1 1.5-4.7.3-1.7 1.2-5.9 2.1-9.5l2-8c.2-.8 1.6-6.2 3-12 1.5-5.8 2.8-11.3 3.1-12.3.2-.9.6-2.5.8-3.5 6.1-24.8 11.2-45.9 13.2-54.2 1.4-5.8 2.8-11.2 2.9-12 4.1-17.6 5.6-24 6.4-26.5l.8-3 .6 2.5c1.2 4.6 4.7 19.9 5.1 22.2.6 3 11 47.4 13.1 55.8 1.5 6.2 1.9 7.8 2.9 12.5.3 1.1 3.2 13 6.6 26.5 3.4 13.5 6.3 25.2 6.5 26 .3.8 1.8 6.7 3.4 13 9.8 37.9 12.3 47.8 12.7 50 .3 1.4 1.4 6.1 2.5 10.5 1.2 4.4 2.2 8.7 2.4 9.5.2.8.8 3.3 1.3 5.5.6 2.2 1.3 5.1 1.6 6.5.2 1.4 1.8 8.1 3.5 15 6.8 27.8 11.3 46.6 11.7 49 .3 1.4.9 3.8 1.4 5.5.5 1.6 2 8.2 3.5 14.6l2.6 11.6h66c36.2 0 65.9-.3 66-.6 0-.3.2-1.5.4-2.6 1.8-9.6 2.8-15.5 3.1-18 .2-1.7.5-4.1.8-5.5.2-1.4.7-4.5 1-7 .4-2.5 1.1-7 1.6-10s1.1-7.2 1.4-9.3c1.2-7.8 1.7-11.3 2.2-13.7.2-1.4 1.3-8.6 2.4-16 1.1-7.4 2.3-14.6 2.5-16 .3-1.4.8-4.3 1.1-6.5.3-2.2.9-6.3 1.4-9 .5-2.8 1.2-7.2 1.5-9.8.4-2.7.8-5.7 1-6.7.5-2.4 1.1-6.8 3-19 .8-5.8 1.7-11.6 2-13 .3-1.3.7-4.2 1-6.5.4-2.2.8-5.4 1.1-7 .7-3.9 1.2-7 1.9-12.5.3-2.5 1-6.8 1.5-9.5 1-5.2 1.3-7.3 2.6-16.5.4-3 .8-5.7.9-6 .1-.3.5-3 .9-6 .5-3 1-6.4 1.2-7.5.2-1.1.6-3.6.9-5.5.3-1.9.7-4.6.9-6 .2-1.4 1-5.9 1.6-10 .6-4.1 1.3-8.6 1.5-10 .3-1.4.7-4.3 1-6.5.4-2.2 1.3-8.3 2.1-13.5.9-5.2 1.7-10.6 1.9-12 .2-1.4.6-3.9.9-5.5.3-1.7 1.7-10.7 3.1-20 1.4-9.4 2.8-18.1 3-19.5.2-1.4.7-4.3 1-6.5.3-2.2 1.3-8.3 2.1-13.5.9-5.2 1.7-10.9 2-12.5.2-1.7.6-4.1.9-5.5.2-1.4.7-4.3 1-6.5.3-2.2.7-5.1 1-6.5.2-1.4.7-4.3 1-6.5.3-2.2 1-6.5 1.5-9.5s1.2-7.4 1.5-9.8c.3-2.4.7-5.3 1-6.5.3-1.2.7-3.8.9-5.7.2-1.9.7-5.1 1-7 .3-1.9.8-4.9 1.1-6.5.3-1.7 1-6.2 1.5-10 1.1-7 1.3-8.3 3-18.5.5-3 1.2-7.5 1.5-10 .7-5.3.9-6.3 3-19.5.8-5.5 1.8-11.4 2-13 1.1-7.5 1.7-10.9 2-12.5.2-1 .7-4 1.1-6.7.3-2.6.8-5.7 1-6.8.3-1.1.7-3.8 1-6 .5-4.1.8-5.9 2.4-15.5.5-3 1.2-7.5 1.5-10 .3-2.5 1.4-9.7 2.5-16 1-6.3 2.1-13.4 2.4-15.7.3-2.2.7-5.2 1-6.5.3-1.2.8-4.1 1.1-6.3 1.7-11.8 5.7-37.9 7.9-51.5 1.4-8.5 2.8-17.3 3.1-19.5.4-2.2.8-5.1 1-6.5.4-2 2.1-13.8 2.9-19.5.1-.5-25.8-.9-68.6-1-45.5 0-68.8.3-68.9 1 0 .5-.2 1.9-.4 3s-.7 4.7-1 8c-.4 3.3-.8 7.1-1 8.5-1.1 8.1-1.5 11.1-2 16-.4 3-.8 6.6-1 8-.2 1.4-.6 5-1 8-.3 3-.7 7.1-1 9-.5 4.1-1.4 11.1-2 16-1.3 11.7-1.7 14.8-2 17-.2 1.4-.6 5-1 8-.3 3-1 9.1-1.6 13.5-.5 4.4-1.2 9.8-1.5 12-.2 2.2-.6 5.6-.9 7.5-.2 1.9-.7 6-1 9-.4 3-.8 6.6-1 8-.2 1.4-.6 5-1 8-.7 6.9-1.4 12.5-2 17-.5 3.8-.7 5.2-3 24.5-.9 7.1-1.8 14.6-2.1 16.5-.3 1.9-.7 6-1 9-.3 3-.7 6.6-.9 8-.2 1.4-.7 5-1 8-.3 3-.8 6.6-1 8-.2 1.4-.6 5-1 8-.7 6.9-1.2 10.4-2.4 20.5-.6 4.4-1.3 10.2-1.6 13-.9 7.2-1.3 10.6-2.9 24-.9 6.6-1.8 14.5-2.1 17.5-.3 3-.8 6.8-1 8.5-.3 1.6-.7 5.2-1 8-.5 5.2-1.4 12.2-2.1 16.5-.5 3.1-2.2 19.7-2.8 27.5-1.3 14.9-1.7 20.4-2.1 26.5-.2 3.6-.6 10.8-.9 16-.9 13.2-1.4 23.9-2.2 42-.6 14.2-.8 19.1-1.4 26-.1 2-3.5-12-6.5-27-.3-1.4-.7-3.6-1-5-.3-1.4-.7-3.6-1-5-.7-3.2-.9-3.9-4.1-19-1.4-6.9-2.8-13.4-3-14.5-.3-1.1-1.1-4.9-1.9-8.5-2.4-11.5-8.5-35.1-12.6-49-2.2-7.4-4.9-16.4-5.8-20-1.8-6.3-6.9-23.7-18.6-63.5-3.1-10.5-5.8-19.7-5.9-20.5-.2-.8-4.8-16.4-10.1-34.5-5.4-18.2-10-34.1-10.4-35.5l-.7-2.5H541.5l-2.8 9.5c-1.6 5.2-4.4 14.7-6.2 21-2.9 10.1-5.9 20.3-15 51.5-1.3 4.4-3.9 13.4-5.8 20-5.2 17.7-11.9 40.5-18.2 62-3 10.4-5.8 20.2-6 21.8-.3 1.5-2.5 10.9-4.9 21-10.7 44.5-12.8 53.3-15.6 66.7-1.7 7.8-3.3 15.6-3.6 17.3-.3 1.8-1.1 5.9-1.9 9.2-1.5 6.8-1.4 7-2-11.5-.4-15-1.5-41.4-2-49-.2-3.6-.7-11-1-16.5-.3-5.5-.8-11.6-.9-13.5-.2-1.9-.7-8-1.1-13.5-.4-5.5-.8-10.6-1-11.5-.1-.8-.6-4.6-1-8.3-.3-3.7-.8-7.6-1-8.5-.1-.9-.6-4.4-.9-7.7-.4-3.3-.9-7.1-1.1-8.5-.2-1.4-.6-4.5-.9-7-.5-4.5-1.2-9.8-2.1-15.5-.2-1.7-.7-5.9-1.1-9.5-.3-3.6-.8-6.7-1-7.1-.1-.3-.6-3.9-1-8-.3-4-.8-7.7-1-8-.2-.3-.6-3.3-.9-6.6-.3-3.3-.7-6.8-.9-7.9-.3-1.8-1.1-7.4-2.2-16.9-.2-2.2-.7-5.1-.9-6.5-.2-1.4-.6-4.5-.9-7-1-8.9-4.3-34.4-5.1-40-.2-1.4-.6-4.8-1-7.5-.9-7.6-1.5-12.3-2.5-20-.5-3.9-1.2-9-1.5-11.5-.3-2.5-.7-6.1-1-8-.3-1.9-.7-5.3-1-7.5-1.5-12.3-3.6-29.3-4-31.5-.2-1.4-.7-5-1-8-.3-3-.8-6.2-1-7-.2-.8-.7-4.5-1-8.2-.3-3.7-.7-7.5-.9-8.5-.3-1.6-.8-5-2.1-15.3-.2-1.9-.9-7.3-1.6-12-.6-4.7-1.3-9.9-1.5-11.5-.8-7.2-1.6-13.2-2-16-.2-1.7-.6-5.2-.9-7.9-.2-2.6-.6-5.6-.9-6.5-.2-.9-.8-4.7-1.1-8.6-.4-3.8-.8-7.2-1-7.6-.2-.3-.5-2.4-.6-4.7-.2-2.3-.5-4.3-.8-4.3-.4-.1-31.3-.2-68.9-.3l-68.3-.1.6 5z"/></svg>