<svg version="1" xmlns="http://www.w3.org/2000/svg" width="1600" height="1600" viewBox="0 0 1200.000000 1200.000000"><path d="M0 600v600h1200V0H0v600zm1160 0v560H40V40h1120v560z"/><path d="M322.5 305.2c.5 2.1 92.5 590.4 92.5 591.4 0 .2 20.8.3 46.2.2l46.2-.3 16.8-60.8c33.9-123 42.4-155.6 58.7-224.2l10.6-45.1 5.9 26.1c11 48.1 25.1 103.4 52.1 204.2L678.4 897h45.8c35.8 0 46-.3 46.3-1.3.3-.6 20.9-132.8 46-293.7 25-160.9 45.7-294 46-295.8l.6-3.2h-84l-.6 3.2c-.3 1.8-10.6 84.5-23 183.8-16.3 131.7-24.3 200-29.6 252.5-4 39.6-7.5 72.3-7.8 72.7-.4.4-3.5-11.7-6.9-27-12-52.7-26.2-108.1-51.2-199.7-13.8-50.6-25.7-94.4-26.6-97.3l-1.5-5.2h-38.4c-22 0-38.6.4-38.9.9-.8 1.2-39.7 144.1-51.4 188.6-8.5 32.1-15.6 61.1-29.1 119l-5.8 24.9-.7-10.9c-1.2-18.3-7.4-85.3-10.7-114.5-1.7-15.1-13.7-109.2-26.7-209l-23.8-181.5-42.2-.3-42.2-.2.5 2.2z"/></svg>