<?xml version="1.0" encoding="utf-8"?>
<!-- Generator: Adobe Illustrator 22.1.0, SVG Export Plug-In . SVG Version: 6.00 Build 0)  -->
<svg version="1.1" id="Layer_1" xmlns="http://www.w3.org/2000/svg" xmlns:xlink="http://www.w3.org/1999/xlink" x="0px" y="0px"
	 viewBox="0 0 1200 1200" style="enable-background:new 0 0 1200 1200;" xml:space="preserve">
<style type="text/css">
	.st0{fill:#FFE200;}
</style>
<g>
	<rect x="-25.1" y="-32.1" class="st0" width="1265" height="1265"/>
</g>
<path d="M559,792.4l23.4-93.9l18.6-78c14.2,63.6,30.1,128.9,47.8,195.8l34,141.7h131.6l111.5-716H788.4l-44.7,368.8
	c-3.5,27.6-6.4,69.9-8.5,126.9l-1.1,14.3c-8.1-39.6-13.8-67.1-17.2-82.5c-3.3-15.4-7.3-31.1-11.9-47l-52.5-179.9H549l-52.5,180
	l-21.2,89.2l-8,40.3c-1.4-60.2-4.3-107.2-8.5-141.2L411.6,242H274.1l112,716h131.6L559,792.4z"/>
</svg>
