<svg xmlns="http://www.w3.org/2000/svg" width="24" height="24" viewBox="0 0 24 24"><path d="M0 6v12h24v-12h-24zm22 10h-20v-8h20v8zm-14.813-4.048l-.217-.619-.658.25v-.708h-.643v.706l-.64-.249-.217.619.661.223-.422.559.537.392.398-.586.421.585.528-.392-.421-.558.673-.222zm4 0l-.217-.619-.658.25v-.708h-.643v.706l-.64-.249-.217.619.661.223-.422.559.537.392.398-.586.421.585.528-.392-.421-.558.673-.222zm4 0l-.217-.619-.658.25v-.708h-.643v.706l-.64-.249-.217.619.661.223-.422.559.537.392.398-.586.421.585.528-.392-.421-.558.673-.222zm4 0l-.217-.619-.658.25v-.708h-.643v.706l-.64-.249-.217.619.661.223-.422.559.537.392.398-.586.421.585.528-.392-.421-.558.673-.222z"/></svg>