<svg xmlns="http://www.w3.org/2000/svg" width="24" height="24" viewBox="0 0 24 24"><path d="M13.137 10.15c.312-.146.638-.18.943-.125.649.119 1.197.646 1.276 1.37-.225-.25-.515-.405-.825-.462-.315-.056-.651-.013-.964.133-.622.292-.987.913-.889 1.584-.744-.767-.513-2.044.459-2.5zm.965 9.247c.642.355 2.649 1.328 4.766 3.603l5.132-2.407c-.876-1.866-.34-2.963-1.208-4.816-.594-1.266-1.047-1.368-1.907-1.366l.306.652c.185.393-.412.67-.594.278l-.272-.583c-.223-.473-.851-.318-1.406-.293l.372.792c.184.392-.408.671-.594.277l-.322-.686c-.227-.485-.879-.308-1.439-.271l.393.839c.185.394-.41.669-.592.278l-1.597-3.395c-.494-1.056-2.133-.332-1.62.759l2.351 5.02c-.317-.187-.892-.412-1.282-.483-1.206-.218-1.909 1.017-.487 1.802zm-7.102-13.397h2v-2h-2v2zm10 3h4v-2h-4v2zm2-3h2v-2h-2v2zm-11 3h2v-2h-2v2zm-5-5v2h3v-2h-3zm7.297 6.922c.06-.326.179-.631.323-.922h-3.62v2h3.286c-.045-.356-.055-.717.011-1.078zm-7.297-1.922h4v-2h-4v2zm7-3h2v-2h-2v2zm6 0h2v-2h-2v2zm-4.758 8.042c-.295-.304-.506-.664-.674-1.042h-8.568v-10h20v9.53c.825.19 1.465.627 2 1.366v-12.896h-24v14h12.17l-.928-.958zm-.242-5.042h2v-2h-2v2zm3 0h2v-2h-2v2zm-1-3h2v-2h-2v2z"/></svg>