<?xml version="1.0" encoding="UTF-8" standalone="no"?><!DOCTYPE svg PUBLIC "-//W3C//DTD SVG 1.1//EN" "http://www.w3.org/Graphics/SVG/1.1/DTD/svg11.dtd"><svg width="100%" height="100%" viewBox="0 0 499 483" version="1.1" xmlns="http://www.w3.org/2000/svg" xmlns:xlink="http://www.w3.org/1999/xlink" xml:space="preserve" xmlns:serif="http://www.serif.com/" style="fill-rule:evenodd;clip-rule:evenodd;stroke-linejoin:round;stroke-miterlimit:2;"><rect id="Artboard1" x="0" y="0" width="498.121" height="482.61" style="fill:none;"/><clipPath id="_clip1"><rect x="0" y="0" width="498.121" height="482.61"/></clipPath><g clip-path="url(#_clip1)"><rect x="-1" y="0" width="17.241" height="16.667"/><rect x="16.241" y="0" width="17.241" height="16.667"/><rect x="33.483" y="0" width="17.241" height="16.667"/><rect x="50.724" y="0" width="17.241" height="16.667"/><rect x="67.966" y="0" width="17.241" height="16.667"/><rect x="85.207" y="0" width="17.241" height="16.667"/><rect x="102.448" y="0" width="17.241" height="16.667"/><rect x="171.414" y="0" width="17.241" height="16.667"/><rect x="205.897" y="0" width="17.241" height="16.667"/><rect x="223.138" y="0" width="17.241" height="16.667"/><rect x="274.862" y="0" width="17.241" height="16.667"/><rect x="326.586" y="0" width="17.241" height="16.667"/><rect x="343.828" y="0" width="17.241" height="16.667"/><rect x="378.31" y="0" width="17.241" height="16.667"/><rect x="395.552" y="0" width="17.241" height="16.667"/><rect x="412.793" y="0" width="17.241" height="16.667"/><rect x="430.034" y="0" width="17.241" height="16.667"/><rect x="447.276" y="0" width="17.241" height="16.667"/><rect x="464.517" y="0" width="17.241" height="16.667"/><rect x="481.759" y="0" width="17.241" height="16.667"/><rect x="-1" y="16.667" width="17.241" height="16.667"/><rect x="102.448" y="16.667" width="17.241" height="16.667"/><rect x="136.931" y="16.667" width="17.241" height="16.667"/><rect x="171.414" y="16.667" width="17.241" height="16.667"/><rect x="223.138" y="16.667" width="17.241" height="16.667"/><rect x="257.621" y="16.667" width="17.241" height="16.667"/><rect x="292.103" y="16.667" width="17.241" height="16.667"/><rect x="309.345" y="16.667" width="17.241" height="16.667"/><rect x="343.828" y="16.667" width="17.241" height="16.667"/><rect x="378.31" y="16.667" width="17.241" height="16.667"/><rect x="481.759" y="16.667" width="17.241" height="16.667"/><rect x="-1" y="33.333" width="17.241" height="16.667"/><rect x="33.483" y="33.333" width="17.241" height="16.667"/><rect x="50.724" y="33.333" width="17.241" height="16.667"/><rect x="67.966" y="33.333" width="17.241" height="16.667"/><rect x="102.448" y="33.333" width="17.241" height="16.667"/><rect x="205.897" y="33.333" width="17.241" height="16.667"/><rect x="240.379" y="33.333" width="17.241" height="16.667"/><rect x="309.345" y="33.333" width="17.241" height="16.667"/><rect x="378.31" y="33.333" width="17.241" height="16.667"/><rect x="412.793" y="33.333" width="17.241" height="16.667"/><rect x="430.034" y="33.333" width="17.241" height="16.667"/><rect x="447.276" y="33.333" width="17.241" height="16.667"/><rect x="481.759" y="33.333" width="17.241" height="16.667"/><rect x="-1" y="50" width="17.241" height="16.667"/><rect x="33.483" y="50" width="17.241" height="16.667"/><rect x="50.724" y="50" width="17.241" height="16.667"/><rect x="67.966" y="50" width="17.241" height="16.667"/><rect x="102.448" y="50" width="17.241" height="16.667"/><rect x="136.931" y="50" width="17.241" height="16.667"/><rect x="154.172" y="50" width="17.241" height="16.667"/><rect x="171.414" y="50" width="17.241" height="16.667"/><rect x="205.897" y="50" width="17.241" height="16.667"/><rect x="223.138" y="50" width="17.241" height="16.667"/><rect x="240.379" y="50" width="17.241" height="16.667"/><rect x="292.103" y="50" width="17.241" height="16.667"/><rect x="309.345" y="50" width="17.241" height="16.667"/><rect x="343.828" y="50" width="17.241" height="16.667"/><rect x="378.31" y="50" width="17.241" height="16.667"/><rect x="412.793" y="50" width="17.241" height="16.667"/><rect x="430.034" y="50" width="17.241" height="16.667"/><rect x="447.276" y="50" width="17.241" height="16.667"/><rect x="481.759" y="50" width="17.241" height="16.667"/><rect x="-1" y="66.667" width="17.241" height="16.667"/><rect x="33.483" y="66.667" width="17.241" height="16.667"/><rect x="50.724" y="66.667" width="17.241" height="16.667"/><rect x="67.966" y="66.667" width="17.241" height="16.667"/><rect x="102.448" y="66.667" width="17.241" height="16.667"/><rect x="154.172" y="66.667" width="17.241" height="16.667"/><rect x="240.379" y="66.667" width="17.241" height="16.667"/><rect x="274.862" y="66.667" width="17.241" height="16.667"/><rect x="326.586" y="66.667" width="17.241" height="16.667"/><rect x="343.828" y="66.667" width="17.241" height="16.667"/><rect x="378.31" y="66.667" width="17.241" height="16.667"/><rect x="412.793" y="66.667" width="17.241" height="16.667"/><rect x="430.034" y="66.667" width="17.241" height="16.667"/><rect x="447.276" y="66.667" width="17.241" height="16.667"/><rect x="481.759" y="66.667" width="17.241" height="16.667"/><rect x="-1" y="83.333" width="17.241" height="16.667"/><rect x="102.448" y="83.333" width="17.241" height="16.667"/><rect x="136.931" y="83.333" width="17.241" height="16.667"/><rect x="154.172" y="83.333" width="17.241" height="16.667"/><rect x="188.655" y="83.333" width="17.241" height="16.667"/><rect x="205.897" y="83.333" width="17.241" height="16.667"/><rect x="257.621" y="83.333" width="17.241" height="16.667"/><rect x="274.862" y="83.333" width="17.241" height="16.667"/><rect x="292.103" y="83.333" width="17.241" height="16.667"/><rect x="309.345" y="83.333" width="17.241" height="16.667"/><rect x="378.31" y="83.333" width="17.241" height="16.667"/><rect x="481.759" y="83.333" width="17.241" height="16.667"/><rect x="-1" y="100" width="17.241" height="16.667"/><rect x="16.241" y="100" width="17.241" height="16.667"/><rect x="33.483" y="100" width="17.241" height="16.667"/><rect x="50.724" y="100" width="17.241" height="16.667"/><rect x="67.966" y="100" width="17.241" height="16.667"/><rect x="85.207" y="100" width="17.241" height="16.667"/><rect x="102.448" y="100" width="17.241" height="16.667"/><rect x="136.931" y="100" width="17.241" height="16.667"/><rect x="171.414" y="100" width="17.241" height="16.667"/><rect x="205.897" y="100" width="17.241" height="16.667"/><rect x="240.379" y="100" width="17.241" height="16.667"/><rect x="274.862" y="100" width="17.241" height="16.667"/><rect x="309.345" y="100" width="17.241" height="16.667"/><rect x="343.828" y="100" width="17.241" height="16.667"/><rect x="378.31" y="100" width="17.241" height="16.667"/><rect x="395.552" y="100" width="17.241" height="16.667"/><rect x="412.793" y="100" width="17.241" height="16.667"/><rect x="430.034" y="100" width="17.241" height="16.667"/><rect x="447.276" y="100" width="17.241" height="16.667"/><rect x="464.517" y="100" width="17.241" height="16.667"/><rect x="481.759" y="100" width="17.241" height="16.667"/><rect x="154.172" y="116.667" width="17.241" height="16.667"/><rect x="171.414" y="116.667" width="17.241" height="16.667"/><rect x="188.655" y="116.667" width="17.241" height="16.667"/><rect x="240.379" y="116.667" width="17.241" height="16.667"/><rect x="257.621" y="116.667" width="17.241" height="16.667"/><rect x="274.862" y="116.667" width="17.241" height="16.667"/><rect x="309.345" y="116.667" width="17.241" height="16.667"/><rect x="326.586" y="116.667" width="17.241" height="16.667"/><rect x="343.828" y="116.667" width="17.241" height="16.667"/><rect x="-1" y="133.333" width="17.241" height="16.667"/><rect x="16.241" y="133.333" width="17.241" height="16.667"/><rect x="33.483" y="133.333" width="17.241" height="16.667"/><rect x="50.724" y="133.333" width="17.241" height="16.667"/><rect x="67.966" y="133.333" width="17.241" height="16.667"/><rect x="102.448" y="133.333" width="17.241" height="16.667"/><rect x="119.69" y="133.333" width="17.241" height="16.667"/><rect x="136.931" y="133.333" width="17.241" height="16.667"/><rect x="154.172" y="133.333" width="17.241" height="16.667"/><rect x="188.655" y="133.333" width="17.241" height="16.667"/><rect x="223.138" y="133.333" width="17.241" height="16.667"/><rect x="257.621" y="133.333" width="17.241" height="16.667"/><rect x="274.862" y="133.333" width="17.241" height="16.667"/><rect x="292.103" y="133.333" width="17.241" height="16.667"/><rect x="361.069" y="133.333" width="17.241" height="16.667"/><rect x="395.552" y="133.333" width="17.241" height="16.667"/><rect x="430.034" y="133.333" width="17.241" height="16.667"/><rect x="464.517" y="133.333" width="17.241" height="16.667"/><rect x="16.241" y="150" width="17.241" height="16.667"/><rect x="33.483" y="150" width="17.241" height="16.667"/><rect x="119.69" y="150" width="17.241" height="16.667"/><rect x="136.931" y="150" width="17.241" height="16.667"/><rect x="171.414" y="150" width="17.241" height="16.667"/><rect x="205.897" y="150" width="17.241" height="16.667"/><rect x="240.379" y="150" width="17.241" height="16.667"/><rect x="274.862" y="150" width="17.241" height="16.667"/><rect x="326.586" y="150" width="17.241" height="16.667"/><rect x="343.828" y="150" width="17.241" height="16.667"/><rect x="378.31" y="150" width="17.241" height="16.667"/><rect x="412.793" y="150" width="17.241" height="16.667"/><rect x="481.759" y="150" width="17.241" height="16.667"/><rect x="-1" y="166.667" width="17.241" height="16.667"/><rect x="16.241" y="166.667" width="17.241" height="16.667"/><rect x="33.483" y="166.667" width="17.241" height="16.667"/><rect x="50.724" y="166.667" width="17.241" height="16.667"/><rect x="85.207" y="166.667" width="17.241" height="16.667"/><rect x="102.448" y="166.667" width="17.241" height="16.667"/><rect x="119.69" y="166.667" width="17.241" height="16.667"/><rect x="136.931" y="166.667" width="17.241" height="16.667"/><rect x="171.414" y="166.667" width="17.241" height="16.667"/><rect x="223.138" y="166.667" width="17.241" height="16.667"/><rect x="257.621" y="166.667" width="17.241" height="16.667"/><rect x="274.862" y="166.667" width="17.241" height="16.667"/><rect x="361.069" y="166.667" width="17.241" height="16.667"/><rect x="378.31" y="166.667" width="17.241" height="16.667"/><rect x="412.793" y="166.667" width="17.241" height="16.667"/><rect x="430.034" y="166.667" width="17.241" height="16.667"/><rect x="16.241" y="183.333" width="17.241" height="16.667"/><rect x="33.483" y="183.333" width="17.241" height="16.667"/><rect x="119.69" y="183.333" width="17.241" height="16.667"/><rect x="136.931" y="183.333" width="17.241" height="16.667"/><rect x="205.897" y="183.333" width="17.241" height="16.667"/><rect x="257.621" y="183.333" width="17.241" height="16.667"/><rect x="309.345" y="183.333" width="17.241" height="16.667"/><rect x="326.586" y="183.333" width="17.241" height="16.667"/><rect x="361.069" y="183.333" width="17.241" height="16.667"/><rect x="430.034" y="183.333" width="17.241" height="16.667"/><rect x="33.483" y="200" width="17.241" height="16.667"/><rect x="85.207" y="200" width="17.241" height="16.667"/><rect x="102.448" y="200" width="17.241" height="16.667"/><rect x="154.172" y="200" width="17.241" height="16.667"/><rect x="171.414" y="200" width="17.241" height="16.667"/><rect x="205.897" y="200" width="17.241" height="16.667"/><rect x="223.138" y="200" width="17.241" height="16.667"/><rect x="240.379" y="200" width="17.241" height="16.667"/><rect x="274.862" y="200" width="17.241" height="16.667"/><rect x="292.103" y="200" width="17.241" height="16.667"/><rect x="309.345" y="200" width="17.241" height="16.667"/><rect x="326.586" y="200" width="17.241" height="16.667"/><rect x="395.552" y="200" width="17.241" height="16.667"/><rect x="430.034" y="200" width="17.241" height="16.667"/><rect x="447.276" y="200" width="17.241" height="16.667"/><rect x="464.517" y="200" width="17.241" height="16.667"/><rect x="-1" y="216.667" width="17.241" height="16.667"/><rect x="33.483" y="216.667" width="17.241" height="16.667"/><rect x="50.724" y="216.667" width="17.241" height="16.667"/><rect x="67.966" y="216.667" width="17.241" height="16.667"/><rect x="119.69" y="216.667" width="17.241" height="16.667"/><rect x="136.931" y="216.667" width="17.241" height="16.667"/><rect x="240.379" y="216.667" width="17.241" height="16.667"/><rect x="326.586" y="216.667" width="17.241" height="16.667"/><rect x="343.828" y="216.667" width="17.241" height="16.667"/><rect x="361.069" y="216.667" width="17.241" height="16.667"/><rect x="378.31" y="216.667" width="17.241" height="16.667"/><rect x="412.793" y="216.667" width="17.241" height="16.667"/><rect x="447.276" y="216.667" width="17.241" height="16.667"/><rect x="481.759" y="216.667" width="17.241" height="16.667"/><rect x="-1" y="233.333" width="17.241" height="16.667"/><rect x="33.483" y="233.333" width="17.241" height="16.667"/><rect x="67.966" y="233.333" width="17.241" height="16.667"/><rect x="102.448" y="233.333" width="17.241" height="16.667"/><rect x="136.931" y="233.333" width="17.241" height="16.667"/><rect x="154.172" y="233.333" width="17.241" height="16.667"/><rect x="171.414" y="233.333" width="17.241" height="16.667"/><rect x="188.655" y="233.333" width="17.241" height="16.667"/><rect x="205.897" y="233.333" width="17.241" height="16.667"/><rect x="240.379" y="233.333" width="17.241" height="16.667"/><rect x="257.621" y="233.333" width="17.241" height="16.667"/><rect x="361.069" y="233.333" width="17.241" height="16.667"/><rect x="378.31" y="233.333" width="17.241" height="16.667"/><rect x="447.276" y="233.333" width="17.241" height="16.667"/><rect x="464.517" y="233.333" width="17.241" height="16.667"/><rect x="-1" y="250" width="17.241" height="16.667"/><rect x="67.966" y="250" width="17.241" height="16.667"/><rect x="119.69" y="250" width="17.241" height="16.667"/><rect x="154.172" y="250" width="17.241" height="16.667"/><rect x="171.414" y="250" width="17.241" height="16.667"/><rect x="188.655" y="250" width="17.241" height="16.667"/><rect x="240.379" y="250" width="17.241" height="16.667"/><rect x="274.862" y="250" width="17.241" height="16.667"/><rect x="361.069" y="250" width="17.241" height="16.667"/><rect x="378.31" y="250" width="17.241" height="16.667"/><rect x="395.552" y="250" width="17.241" height="16.667"/><rect x="481.759" y="250" width="17.241" height="16.667"/><rect x="85.207" y="266.667" width="17.241" height="16.667"/><rect x="102.448" y="266.667" width="17.241" height="16.667"/><rect x="136.931" y="266.667" width="17.241" height="16.667"/><rect x="154.172" y="266.667" width="17.241" height="16.667"/><rect x="171.414" y="266.667" width="17.241" height="16.667"/><rect x="188.655" y="266.667" width="17.241" height="16.667"/><rect x="223.138" y="266.667" width="17.241" height="16.667"/><rect x="240.379" y="266.667" width="17.241" height="16.667"/><rect x="257.621" y="266.667" width="17.241" height="16.667"/><rect x="274.862" y="266.667" width="17.241" height="16.667"/><rect x="292.103" y="266.667" width="17.241" height="16.667"/><rect x="309.345" y="266.667" width="17.241" height="16.667"/><rect x="343.828" y="266.667" width="17.241" height="16.667"/><rect x="361.069" y="266.667" width="17.241" height="16.667"/><rect x="430.034" y="266.667" width="17.241" height="16.667"/><rect x="447.276" y="266.667" width="17.241" height="16.667"/><rect x="464.517" y="266.667" width="17.241" height="16.667"/><rect x="-1" y="283.333" width="17.241" height="16.667"/><rect x="16.241" y="283.333" width="17.241" height="16.667"/><rect x="33.483" y="283.333" width="17.241" height="16.667"/><rect x="50.724" y="283.333" width="17.241" height="16.667"/><rect x="67.966" y="283.333" width="17.241" height="16.667"/><rect x="136.931" y="283.333" width="17.241" height="16.667"/><rect x="171.414" y="283.333" width="17.241" height="16.667"/><rect x="205.897" y="283.333" width="17.241" height="16.667"/><rect x="274.862" y="283.333" width="17.241" height="16.667"/><rect x="326.586" y="283.333" width="17.241" height="16.667"/><rect x="378.31" y="283.333" width="17.241" height="16.667"/><rect x="395.552" y="283.333" width="17.241" height="16.667"/><rect x="412.793" y="283.333" width="17.241" height="16.667"/><rect x="447.276" y="283.333" width="17.241" height="16.667"/><rect x="464.517" y="283.333" width="17.241" height="16.667"/><rect x="481.759" y="283.333" width="17.241" height="16.667"/><rect x="-1" y="300" width="17.241" height="16.667"/><rect x="33.483" y="300" width="17.241" height="16.667"/><rect x="67.966" y="300" width="17.241" height="16.667"/><rect x="102.448" y="300" width="17.241" height="16.667"/><rect x="171.414" y="300" width="17.241" height="16.667"/><rect x="223.138" y="300" width="17.241" height="16.667"/><rect x="240.379" y="300" width="17.241" height="16.667"/><rect x="257.621" y="300" width="17.241" height="16.667"/><rect x="274.862" y="300" width="17.241" height="16.667"/><rect x="292.103" y="300" width="17.241" height="16.667"/><rect x="343.828" y="300" width="17.241" height="16.667"/><rect x="395.552" y="300" width="17.241" height="16.667"/><rect x="412.793" y="300" width="17.241" height="16.667"/><rect x="430.034" y="300" width="17.241" height="16.667"/><rect x="-1" y="316.667" width="17.241" height="16.667"/><rect x="50.724" y="316.667" width="17.241" height="16.667"/><rect x="67.966" y="316.667" width="17.241" height="16.667"/><rect x="154.172" y="316.667" width="17.241" height="16.667"/><rect x="171.414" y="316.667" width="17.241" height="16.667"/><rect x="205.897" y="316.667" width="17.241" height="16.667"/><rect x="274.862" y="316.667" width="17.241" height="16.667"/><rect x="309.345" y="316.667" width="17.241" height="16.667"/><rect x="326.586" y="316.667" width="17.241" height="16.667"/><rect x="361.069" y="316.667" width="17.241" height="16.667"/><rect x="378.31" y="316.667" width="17.241" height="16.667"/><rect x="395.552" y="316.667" width="17.241" height="16.667"/><rect x="412.793" y="316.667" width="17.241" height="16.667"/><rect x="430.034" y="316.667" width="17.241" height="16.667"/><rect x="464.517" y="316.667" width="17.241" height="16.667"/><rect x="481.759" y="316.667" width="17.241" height="16.667"/><rect x="-1" y="333.333" width="17.241" height="16.667"/><rect x="50.724" y="333.333" width="17.241" height="16.667"/><rect x="85.207" y="333.333" width="17.241" height="16.667"/><rect x="102.448" y="333.333" width="17.241" height="16.667"/><rect x="154.172" y="333.333" width="17.241" height="16.667"/><rect x="171.414" y="333.333" width="17.241" height="16.667"/><rect x="205.897" y="333.333" width="17.241" height="16.667"/><rect x="223.138" y="333.333" width="17.241" height="16.667"/><rect x="240.379" y="333.333" width="17.241" height="16.667"/><rect x="257.621" y="333.333" width="17.241" height="16.667"/><rect x="274.862" y="333.333" width="17.241" height="16.667"/><rect x="292.103" y="333.333" width="17.241" height="16.667"/><rect x="343.828" y="333.333" width="17.241" height="16.667"/><rect x="361.069" y="333.333" width="17.241" height="16.667"/><rect x="378.31" y="333.333" width="17.241" height="16.667"/><rect x="395.552" y="333.333" width="17.241" height="16.667"/><rect x="412.793" y="333.333" width="17.241" height="16.667"/><rect x="447.276" y="333.333" width="17.241" height="16.667"/><rect x="464.517" y="333.333" width="17.241" height="16.667"/><rect x="136.931" y="350" width="17.241" height="16.667"/><rect x="171.414" y="350" width="17.241" height="16.667"/><rect x="240.379" y="350" width="17.241" height="16.667"/><rect x="309.345" y="350" width="17.241" height="16.667"/><rect x="326.586" y="350" width="17.241" height="16.667"/><rect x="343.828" y="350" width="17.241" height="16.667"/><rect x="412.793" y="350" width="17.241" height="16.667"/><rect x="430.034" y="350" width="17.241" height="16.667"/><rect x="447.276" y="350" width="17.241" height="16.667"/><rect x="464.517" y="350" width="17.241" height="16.667"/><rect x="481.759" y="350" width="17.241" height="16.667"/><rect x="-1" y="366.667" width="17.241" height="16.667"/><rect x="16.241" y="366.667" width="17.241" height="16.667"/><rect x="33.483" y="366.667" width="17.241" height="16.667"/><rect x="50.724" y="366.667" width="17.241" height="16.667"/><rect x="67.966" y="366.667" width="17.241" height="16.667"/><rect x="85.207" y="366.667" width="17.241" height="16.667"/><rect x="102.448" y="366.667" width="17.241" height="16.667"/><rect x="136.931" y="366.667" width="17.241" height="16.667"/><rect x="154.172" y="366.667" width="17.241" height="16.667"/><rect x="171.414" y="366.667" width="17.241" height="16.667"/><rect x="188.655" y="366.667" width="17.241" height="16.667"/><rect x="205.897" y="366.667" width="17.241" height="16.667"/><rect x="240.379" y="366.667" width="17.241" height="16.667"/><rect x="257.621" y="366.667" width="17.241" height="16.667"/><rect x="274.862" y="366.667" width="17.241" height="16.667"/><rect x="292.103" y="366.667" width="17.241" height="16.667"/><rect x="326.586" y="366.667" width="17.241" height="16.667"/><rect x="343.828" y="366.667" width="17.241" height="16.667"/><rect x="378.31" y="366.667" width="17.241" height="16.667"/><rect x="412.793" y="366.667" width="17.241" height="16.667"/><rect x="447.276" y="366.667" width="17.241" height="16.667"/><rect x="-1" y="383.333" width="17.241" height="16.667"/><rect x="102.448" y="383.333" width="17.241" height="16.667"/><rect x="154.172" y="383.333" width="17.241" height="16.667"/><rect x="188.655" y="383.333" width="17.241" height="16.667"/><rect x="274.862" y="383.333" width="17.241" height="16.667"/><rect x="309.345" y="383.333" width="17.241" height="16.667"/><rect x="326.586" y="383.333" width="17.241" height="16.667"/><rect x="343.828" y="383.333" width="17.241" height="16.667"/><rect x="412.793" y="383.333" width="17.241" height="16.667"/><rect x="430.034" y="383.333" width="17.241" height="16.667"/><rect x="464.517" y="383.333" width="17.241" height="16.667"/><rect x="481.759" y="383.333" width="17.241" height="16.667"/><rect x="-1" y="400" width="17.241" height="16.667"/><rect x="33.483" y="400" width="17.241" height="16.667"/><rect x="50.724" y="400" width="17.241" height="16.667"/><rect x="67.966" y="400" width="17.241" height="16.667"/><rect x="102.448" y="400" width="17.241" height="16.667"/><rect x="136.931" y="400" width="17.241" height="16.667"/><rect x="154.172" y="400" width="17.241" height="16.667"/><rect x="188.655" y="400" width="17.241" height="16.667"/><rect x="257.621" y="400" width="17.241" height="16.667"/><rect x="274.862" y="400" width="17.241" height="16.667"/><rect x="292.103" y="400" width="17.241" height="16.667"/><rect x="343.828" y="400" width="17.241" height="16.667"/><rect x="361.069" y="400" width="17.241" height="16.667"/><rect x="378.31" y="400" width="17.241" height="16.667"/><rect x="395.552" y="400" width="17.241" height="16.667"/><rect x="412.793" y="400" width="17.241" height="16.667"/><rect x="447.276" y="400" width="17.241" height="16.667"/><rect x="464.517" y="400" width="17.241" height="16.667"/><rect x="481.759" y="400" width="17.241" height="16.667"/><rect x="-1" y="416.667" width="17.241" height="16.667"/><rect x="33.483" y="416.667" width="17.241" height="16.667"/><rect x="50.724" y="416.667" width="17.241" height="16.667"/><rect x="67.966" y="416.667" width="17.241" height="16.667"/><rect x="102.448" y="416.667" width="17.241" height="16.667"/><rect x="136.931" y="416.667" width="17.241" height="16.667"/><rect x="171.414" y="416.667" width="17.241" height="16.667"/><rect x="205.897" y="416.667" width="17.241" height="16.667"/><rect x="223.138" y="416.667" width="17.241" height="16.667"/><rect x="274.862" y="416.667" width="17.241" height="16.667"/><rect x="309.345" y="416.667" width="17.241" height="16.667"/><rect x="326.586" y="416.667" width="17.241" height="16.667"/><rect x="343.828" y="416.667" width="17.241" height="16.667"/><rect x="395.552" y="416.667" width="17.241" height="16.667"/><rect x="447.276" y="416.667" width="17.241" height="16.667"/><rect x="464.517" y="416.667" width="17.241" height="16.667"/><rect x="481.759" y="416.667" width="17.241" height="16.667"/><rect x="-1" y="433.333" width="17.241" height="16.667"/><rect x="33.483" y="433.333" width="17.241" height="16.667"/><rect x="50.724" y="433.333" width="17.241" height="16.667"/><rect x="67.966" y="433.333" width="17.241" height="16.667"/><rect x="102.448" y="433.333" width="17.241" height="16.667"/><rect x="136.931" y="433.333" width="17.241" height="16.667"/><rect x="223.138" y="433.333" width="17.241" height="16.667"/><rect x="240.379" y="433.333" width="17.241" height="16.667"/><rect x="257.621" y="433.333" width="17.241" height="16.667"/><rect x="274.862" y="433.333" width="17.241" height="16.667"/><rect x="292.103" y="433.333" width="17.241" height="16.667"/><rect x="309.345" y="433.333" width="17.241" height="16.667"/><rect x="361.069" y="433.333" width="17.241" height="16.667"/><rect x="378.31" y="433.333" width="17.241" height="16.667"/><rect x="412.793" y="433.333" width="17.241" height="16.667"/><rect x="447.276" y="433.333" width="17.241" height="16.667"/><rect x="464.517" y="433.333" width="17.241" height="16.667"/><rect x="-1" y="450" width="17.241" height="16.667"/><rect x="102.448" y="450" width="17.241" height="16.667"/><rect x="136.931" y="450" width="17.241" height="16.667"/><rect x="171.414" y="450" width="17.241" height="16.667"/><rect x="205.897" y="450" width="17.241" height="16.667"/><rect x="223.138" y="450" width="17.241" height="16.667"/><rect x="343.828" y="450" width="17.241" height="16.667"/><rect x="378.31" y="450" width="17.241" height="16.667"/><rect x="395.552" y="450" width="17.241" height="16.667"/><rect x="412.793" y="450" width="17.241" height="16.667"/><rect x="430.034" y="450" width="17.241" height="16.667"/><rect x="464.517" y="450" width="17.241" height="16.667"/><rect x="-1" y="466.667" width="17.241" height="16.667"/><rect x="16.241" y="466.667" width="17.241" height="16.667"/><rect x="33.483" y="466.667" width="17.241" height="16.667"/><rect x="50.724" y="466.667" width="17.241" height="16.667"/><rect x="67.966" y="466.667" width="17.241" height="16.667"/><rect x="85.207" y="466.667" width="17.241" height="16.667"/><rect x="102.448" y="466.667" width="17.241" height="16.667"/><rect x="136.931" y="466.667" width="17.241" height="16.667"/><rect x="154.172" y="466.667" width="17.241" height="16.667"/><rect x="205.897" y="466.667" width="17.241" height="16.667"/><rect x="240.379" y="466.667" width="17.241" height="16.667"/><rect x="257.621" y="466.667" width="17.241" height="16.667"/><rect x="274.862" y="466.667" width="17.241" height="16.667"/><rect x="292.103" y="466.667" width="17.241" height="16.667"/><rect x="326.586" y="466.667" width="17.241" height="16.667"/><rect x="361.069" y="466.667" width="17.241" height="16.667"/><rect x="378.31" y="466.667" width="17.241" height="16.667"/><rect x="412.793" y="466.667" width="17.241" height="16.667"/><rect x="430.034" y="466.667" width="17.241" height="16.667"/><rect x="447.276" y="466.667" width="17.241" height="16.667"/></g></svg>