<?xml version="1.0" encoding="utf-8"?>
<!-- Generator: Adobe Illustrator 21.0.2, SVG Export Plug-In . SVG Version: 6.00 Build 0)  -->
<svg version="1.1" id="Layer_1" xmlns="http://www.w3.org/2000/svg" xmlns:xlink="http://www.w3.org/1999/xlink" x="0px" y="0px"
	 viewBox="0 0 1200 1200" style="enable-background:new 0 0 1200 1200;" xml:space="preserve">
<style type="text/css">
	.st0{fill:#ffe200;}
</style>
<g>
	<rect x="-25.1" y="-32.1" class="st0" width="1265" height="1265"/>
</g>
<path d="M145.1,145.1v909.8h909.8V145.1H145.1z M814.4,958H682.8l-34-141.7c-17.7-66.9-33.6-132.2-47.8-195.8l-18.6,78l-23.4,93.9
	L517.7,958H386.1l-112-716h137.5l47.2,368.9c4.2,34,7.1,81,8.5,141.2l8-40.3l21.2-89.2L549,442.6h103.5l52.5,179.9
	c4.6,15.9,8.6,31.6,11.9,47c3.4,15.4,9.1,42.9,17.2,82.5l1.1-14.3c2.1-57,5-99.3,8.5-126.9L788.4,242h137.5L814.4,958z"/>
</svg>
